<svg xmlns="http://www.w3.org/2000/svg" viewBox="0 0 1024 1024" width="32" height="32">
  <g fill="#053B38" fill-opacity="1.00" stroke="None">
    <path d="
      M 496.00 284.00 
      C 475.98 282.06 455.02 285.46 435.00 284.00 C 414.98 282.54 393.81 285.95 374.00 284.00 C 354.19 282.05 339.95 291.64 341.00 312.00 
      C 342.05 332.36 340.51 351.69 341.00 372.00 C 341.49 392.31 340.72 412.65 341.00 433.00 C 341.28 453.35 340.73 473.60 341.00 494.00 
      C 341.27 514.40 340.57 534.47 341.02 554.98 C 341.48 575.48 363.16 574.50 377.77 565.77 C 392.38 557.04 414.08 559.11 432.00 559.00 
      C 449.92 558.89 475.34 559.37 493.00 559.00 C 510.66 558.63 529.58 556.30 544.25 549.25 C 558.92 542.20 570.78 537.62 582.75 527.75 
      C 594.72 517.89 602.67 508.04 611.08 495.08 C 619.48 482.12 624.44 466.93 628.01 451.01 C 631.58 435.09 630.12 410.29 628.00 394.00 
      C 625.88 377.71 620.20 363.59 612.30 349.70 C 604.40 335.80 596.61 327.04 584.25 316.75 C 571.88 306.47 560.37 299.88 545.07 294.93 
      C 529.78 289.97 512.20 285.57 496.00 284.00
      M 496.00 338.00 
      C 507.61 339.12 520.36 341.86 531.08 346.92 C 541.79 351.99 549.04 357.56 556.25 366.75 C 563.46 375.95 568.43 384.79 571.98 396.02 
      C 575.52 407.26 577.81 424.10 575.00 436.00 C 572.19 447.90 567.96 457.96 562.23 468.23 C 556.50 478.49 549.78 484.53 539.92 490.92 
      C 530.06 497.31 520.49 503.03 508.00 504.00 C 495.50 504.96 476.72 505.39 464.00 505.00 C 451.28 504.61 433.44 504.55 422.98 507.98 
      C 412.51 511.40 396.35 522.31 395.00 507.00 C 393.66 491.69 395.55 476.84 395.00 462.00 C 394.45 447.16 395.12 431.26 395.00 417.00 
      C 394.88 402.74 394.77 385.18 395.00 372.00 C 395.23 358.82 390.39 338.44 406.00 338.00 C 421.61 337.56 435.74 337.62 451.00 338.00 
      C 466.26 338.38 480.92 336.54 496.00 338.00 Z"/>
  </g>

  <g fill="#053B38" fill-opacity="1.00" stroke="None">
    <path d="
      M 448.00 448.00 
      C 446.47 453.79 435.04 461.75 434.79 467.77 C 434.54 473.79 452.49 470.38 458.93 467.93 C 465.36 465.47 480.81 466.39 488.93 465.93 
      C 497.04 465.46 505.87 461.51 512.25 456.25 C 518.63 450.99 522.42 444.64 525.07 437.07 C 527.72 429.50 529.52 417.03 526.93 409.07 
      C 524.33 401.12 521.38 393.61 514.75 388.25 C 508.11 382.90 501.25 379.45 493.00 378.00 C 484.75 376.55 472.10 378.05 465.10 382.10 
      C 458.09 386.14 453.16 390.84 447.92 397.92 C 442.68 405.00 440.54 413.79 441.00 423.00 C 441.46 432.21 441.67 440.78 448.00 448.00 Z"/>
  </g>
</svg>
