<svg xmlns="http://www.w3.org/2000/svg" viewBox="0 0 32 32" width="32" height="32">
  <g fill="#053B38" fill-opacity="1.00" stroke="None">
    <path d="M 15.5,8.875 C 14.874375,8.814375 14.219375,8.920625 13.59375,8.875 C 12.968125,8.829375 12.3065625,8.9359375 11.6875,8.875 C 11.0684375,8.8140625 10.6234375,9.11375 10.65625,9.75 C 10.6890625,10.38625 10.6409375,10.9903125 10.65625,11.625 C 10.6715625,12.2596875 10.6475,12.8953125 10.65625,13.53125 C 10.665,14.1671875 10.6478125,14.8 10.65625,15.4375 C 10.6646875,16.075 10.6428125,16.7021875 10.656875,17.343125 C 10.67125,17.98375 11.34875,17.953125 11.8053125,17.6803125 C 12.261875,17.4075 12.94,17.4721875 13.5,17.46875 C 14.06,17.4653125 14.854375,17.4803125 15.40625,17.46875 C 15.958125,17.4571875 16.549375,17.384375 17.0078125,17.1640625 C 17.46625,16.94375 17.836875,16.800625 18.2109375,16.4921875 C 18.585,16.1840625 18.8334375,15.87625 19.09625,15.47125 C 19.35875,15.06625 19.51375,14.5915625 19.6253125,14.0940625 C 19.736875,13.5965625 19.69125,12.8215625 19.625,12.3125 C 19.55875,11.8034375 19.38125,11.3621875 19.134375,10.928125 C 18.8875,10.49375 18.6440625,10.22 18.2578125,9.8984375 C 17.87125,9.5771875 17.5115625,9.37125 17.0334375,9.2165625 C 16.555625,9.0615625 16.00625,8.9240625 15.5,8.875 M 15.5,10.5625 C 15.8628125,10.5975 16.26125,10.683125 16.59625,10.84125 C 16.9309375,10.9996875 17.1575,11.17375 17.3828125,11.4609375 C 17.608125,11.7484375 17.7634375,12.0246875 17.874375,12.375625 C 17.985,12.726875 18.0565625,13.253125 17.96875,13.625 C 17.8809375,13.996875 17.74875,14.31125 17.5696875,14.6321875 C 17.390625,14.9528125 17.180625,15.1415625 16.8725,15.34125 C 16.564375,15.5409375 16.2653125,15.7196875 15.875,15.75 C 15.484375,15.78 14.8975,15.7934375 14.5,15.78125 C 14.1025,15.7690625 13.545,15.7671875 13.218125,15.874375 C 12.8909375,15.98125 12.3859375,16.3221875 12.34375,15.84375 C 12.301875,15.3653125 12.3609375,14.90125 12.34375,14.4375 C 12.3265625,13.97375 12.3475,13.476875 12.34375,13.03125 C 12.34,12.585625 12.3365625,12.036875 12.34375,11.625 C 12.3509375,11.213125 12.1996875,10.57625 12.6875,10.5625 C 13.1753125,10.54875 13.616875,10.550625 14.09375,10.5625 C 14.570625,10.574375 15.02875,10.516875 15.5,10.5625"/>
  </g>

  <g fill="#053B38" fill-opacity="1.00" stroke="None">
    <path d="M 14.0,14.0 C 13.9521875,14.1809375 13.595,14.4296875 13.5871875,14.6178125 C 13.579375,14.8059375 14.1403125,14.699375 14.3415625,14.6228125 C 14.5425,14.5459375 15.0253125,14.5746875 15.2790625,14.5603125 C 15.5325,14.545625 15.8084375,14.4221875 16.0078125,14.2578125 C 16.2071875,14.0934375 16.325625,13.895 16.4084375,13.6584375 C 16.49125,13.421875 16.5475,13.0321875 16.4665625,12.7834375 C 16.3853125,12.535 16.293125,12.3003125 16.0859375,12.1328125 C 15.8784375,11.965625 15.6640625,11.8578125 15.40625,11.8125 C 15.1484375,11.7671875 14.753125,11.8140625 14.534375,11.940625 C 14.3153125,12.066875 14.16125,12.21375 13.9975,12.435 C 13.83375,12.65625 13.766875,12.9309375 13.78125,13.21875 C 13.795625,13.5065625 13.8021875,13.774375 14.0,14.0"/>
  </g>
</svg>